<svg xmlns="http://www.w3.org/2000/svg" version="1.1" xmlns:xlink="http://www.w3.org/1999/xlink" xmlns:svgjs="http://svgjs.dev/svgjs" viewBox="0 0 1422 800"><circle r="8" cx="798" cy="241" fill="hsl(57, 75%, 74%)" opacity="0.56"></circle><circle r="10.5" cx="544" cy="567" fill="hsl(76, 75%, 74%)" opacity="0.34"></circle><circle r="10" cx="1102" cy="172" fill="hsl(170, 75%, 74%)" opacity="0.52"></circle><circle r="7" cx="495" cy="117" fill="hsl(97, 75%, 74%)" opacity="0.50"></circle><circle r="7.5" cx="268" cy="425" fill="hsl(63, 75%, 74%)" opacity="0.11"></circle><circle r="8" cx="228" cy="659" fill="hsl(67, 75%, 74%)" opacity="0.79"></circle><circle r="10" cx="296" cy="76" fill="hsl(60, 75%, 74%)" opacity="0.36"></circle><circle r="7" cx="806" cy="700" fill="hsl(60, 75%, 74%)" opacity="0.48"></circle><circle r="10" cx="1312" cy="637" fill="hsl(162, 75%, 74%)" opacity="0.18"></circle><circle r="9" cx="534" cy="402" fill="hsl(76, 75%, 74%)" opacity="0.41"></circle><circle r="8" cx="518" cy="264" fill="hsl(77, 75%, 74%)" opacity="0.17"></circle><circle r="7" cx="438" cy="355" fill="hsl(73, 75%, 74%)" opacity="0.48"></circle><circle r="17.5" cx="1235" cy="530" fill="hsl(193, 75%, 74%)" opacity="0.13"></circle><circle r="7" cx="692" cy="156" fill="hsl(61, 75%, 74%)" opacity="0.18"></circle><circle r="9.5" cx="398" cy="490" fill="hsl(69, 75%, 74%)" opacity="0.85"></circle><circle r="9" cx="543" cy="449" fill="hsl(76, 75%, 74%)" opacity="0.19"></circle><circle r="6.5" cx="313" cy="299" fill="hsl(64, 75%, 74%)" opacity="0.81"></circle><circle r="5.5" cx="1350" cy="13" fill="hsl(110, 75%, 74%)" opacity="0.79"></circle><circle r="14.5" cx="1388" cy="730" fill="hsl(130, 75%, 74%)" opacity="0.26"></circle><circle r="14.5" cx="1392" cy="429" fill="hsl(130, 75%, 74%)" opacity="0.33"></circle><circle r="20.5" cx="1148" cy="419" fill="hsl(195, 75%, 74%)" opacity="0.84"></circle><circle r="11" cx="536" cy="122" fill="hsl(97, 75%, 74%)" opacity="0.24"></circle><circle r="4.5" cx="1412" cy="276" fill="hsl(119, 75%, 74%)" opacity="0.86"></circle><circle r="7.5" cx="779" cy="540" fill="hsl(57, 75%, 74%)" opacity="0.67"></circle><circle r="9.5" cx="187" cy="752" fill="hsl(75, 75%, 74%)" opacity="0.22"></circle><circle r="17" cx="1245" cy="467" fill="hsl(188, 75%, 74%)" opacity="0.75"></circle><circle r="9.5" cx="435" cy="237" fill="hsl(73, 75%, 74%)" opacity="0.32"></circle><circle r="8.5" cx="494" cy="778" fill="hsl(77, 75%, 74%)" opacity="0.80"></circle><circle r="8" cx="755" cy="274" fill="hsl(56, 75%, 74%)" opacity="0.95"></circle><circle r="7" cx="735" cy="546" fill="hsl(56, 75%, 74%)" opacity="0.30"></circle><circle r="8.5" cx="970" cy="781" fill="hsl(118, 75%, 74%)" opacity="0.36"></circle><circle r="9" cx="628" cy="682" fill="hsl(66, 75%, 74%)" opacity="0.70"></circle><circle r="4.5" cx="892" cy="147" fill="hsl(66, 75%, 74%)" opacity="0.62"></circle><circle r="8" cx="709" cy="584" fill="hsl(58, 75%, 74%)" opacity="0.86"></circle><circle r="10" cx="1136" cy="517" fill="hsl(195, 75%, 74%)" opacity="0.57"></circle><circle r="12" cx="336" cy="628" fill="hsl(65, 75%, 74%)" opacity="0.33"></circle><circle r="14.5" cx="1262" cy="123" fill="hsl(171, 75%, 74%)" opacity="0.84"></circle><circle r="9" cx="969" cy="173" fill="hsl(105, 75%, 74%)" opacity="0.65"></circle><circle r="10.5" cx="1265" cy="410" fill="hsl(188, 75%, 74%)" opacity="0.12"></circle><circle r="8.5" cx="586" cy="442" fill="hsl(72, 75%, 74%)" opacity="0.95"></circle><circle r="5.5" cx="872" cy="229" fill="hsl(77, 75%, 74%)" opacity="0.83"></circle><circle r="8.5" cx="218" cy="581" fill="hsl(70, 75%, 74%)" opacity="0.64"></circle><circle r="8" cx="309" cy="411" fill="hsl(63, 75%, 74%)" opacity="0.74"></circle><circle r="8" cx="892" cy="646" fill="hsl(86, 75%, 74%)" opacity="0.88"></circle><circle r="9" cx="236" cy="34" fill="hsl(53, 75%, 74%)" opacity="0.67"></circle><circle r="7.5" cx="839" cy="216" fill="hsl(64, 75%, 74%)" opacity="0.82"></circle><circle r="19.5" cx="1263" cy="351" fill="hsl(188, 75%, 74%)" opacity="0.68"></circle><circle r="7.5" cx="1062" cy="88" fill="hsl(92, 75%, 74%)" opacity="0.30"></circle><circle r="11" cx="1143" cy="553" fill="hsl(195, 75%, 74%)" opacity="0.57"></circle><circle r="5.5" cx="221" cy="355" fill="hsl(70, 75%, 74%)" opacity="0.97"></circle><circle r="6.5" cx="568" cy="293" fill="hsl(74, 75%, 74%)" opacity="0.20"></circle><circle r="6" cx="1065" cy="261" fill="hsl(165, 75%, 74%)" opacity="0.47"></circle><circle r="7" cx="703" cy="710" fill="hsl(58, 75%, 74%)" opacity="0.64"></circle><circle r="9" cx="682" cy="775" fill="hsl(60, 75%, 74%)" opacity="0.30"></circle><circle r="14.5" cx="1170" cy="719" fill="hsl(198, 75%, 74%)" opacity="0.89"></circle><circle r="8.5" cx="1132" cy="223" fill="hsl(190, 75%, 74%)" opacity="0.63"></circle><circle r="8.5" cx="1091" cy="223" fill="hsl(183, 75%, 74%)" opacity="0.97"></circle><circle r="10" cx="578" cy="603" fill="hsl(74, 75%, 74%)" opacity="0.58"></circle><circle r="15.5" cx="1225" cy="692" fill="hsl(193, 75%, 74%)" opacity="0.61"></circle><circle r="14" cx="1015" cy="713" fill="hsl(142, 75%, 74%)" opacity="0.50"></circle><circle r="7" cx="867" cy="684" fill="hsl(77, 75%, 74%)" opacity="0.99"></circle><circle r="9.5" cx="1381" cy="282" fill="hsl(130, 75%, 74%)" opacity="0.42"></circle><circle r="5.5" cx="842" cy="612" fill="hsl(64, 75%, 74%)" opacity="0.75"></circle><circle r="5.5" cx="750" cy="156" fill="hsl(56, 75%, 74%)" opacity="0.41"></circle><circle r="9.5" cx="367" cy="710" fill="hsl(67, 75%, 74%)" opacity="0.34"></circle><circle r="8.5" cx="843" cy="545" fill="hsl(64, 75%, 74%)" opacity="0.60"></circle><circle r="8" cx="548" cy="779" fill="hsl(76, 75%, 74%)" opacity="0.29"></circle><circle r="11" cx="103" cy="364" fill="hsl(103, 75%, 74%)" opacity="0.10"></circle><circle r="16" cx="1267" cy="765" fill="hsl(181, 75%, 74%)" opacity="0.22"></circle><circle r="7.5" cx="321" cy="711" fill="hsl(64, 75%, 74%)" opacity="0.76"></circle><circle r="9.5" cx="557" cy="668" fill="hsl(74, 75%, 74%)" opacity="0.51"></circle><circle r="15" cx="640" cy="33" fill="hsl(113, 75%, 74%)" opacity="0.39"></circle><circle r="8" cx="1404" cy="201" fill="hsl(119, 75%, 74%)" opacity="0.63"></circle><circle r="16.5" cx="37" cy="582" fill="hsl(133, 75%, 74%)" opacity="0.51"></circle><circle r="10" cx="1130" cy="191" fill="hsl(190, 75%, 74%)" opacity="0.98"></circle><circle r="9" cx="936" cy="243" fill="hsl(107, 75%, 74%)" opacity="0.12"></circle><circle r="9" cx="19" cy="750" fill="hsl(144, 75%, 74%)" opacity="0.53"></circle><circle r="10.5" cx="983" cy="474" fill="hsl(130, 75%, 74%)" opacity="0.37"></circle><circle r="6" cx="853" cy="649" fill="hsl(70, 75%, 74%)" opacity="0.66"></circle><circle r="10.5" cx="1146" cy="781" fill="hsl(195, 75%, 74%)" opacity="0.64"></circle><circle r="14.5" cx="1238" cy="32" fill="hsl(134, 75%, 74%)" opacity="0.75"></circle><circle r="6" cx="341" cy="322" fill="hsl(65, 75%, 74%)" opacity="0.11"></circle><circle r="4.5" cx="350" cy="353" fill="hsl(65, 75%, 74%)" opacity="0.48"></circle><circle r="5.5" cx="144" cy="305" fill="hsl(87, 75%, 74%)" opacity="0.31"></circle><circle r="17" cx="1221" cy="309" fill="hsl(197, 75%, 74%)" opacity="0.22"></circle><circle r="5.5" cx="154" cy="333" fill="hsl(87, 75%, 74%)" opacity="0.25"></circle><circle r="5.5" cx="763" cy="111" fill="hsl(53, 75%, 74%)" opacity="0.87"></circle><circle r="13.5" cx="155" cy="493" fill="hsl(87, 75%, 74%)" opacity="0.48"></circle><circle r="9.5" cx="446" cy="493" fill="hsl(75, 75%, 74%)" opacity="0.18"></circle><circle r="13" cx="607" cy="93" fill="hsl(96, 75%, 74%)" opacity="0.99"></circle><circle r="12" cx="1113" cy="294" fill="hsl(190, 75%, 74%)" opacity="0.37"></circle><circle r="13.5" cx="116" cy="439" fill="hsl(95, 75%, 74%)" opacity="0.71"></circle><circle r="15.5" cx="992" cy="420" fill="hsl(130, 75%, 74%)" opacity="0.60"></circle><circle r="6" cx="1153" cy="26" fill="hsl(110, 75%, 74%)" opacity="0.94"></circle><circle r="15" cx="1089" cy="524" fill="hsl(183, 75%, 74%)" opacity="0.78"></circle><circle r="8" cx="1321" cy="55" fill="hsl(134, 75%, 74%)" opacity="0.74"></circle><circle r="10.5" cx="1326" cy="600" fill="hsl(162, 75%, 74%)" opacity="0.52"></circle><circle r="9.5" cx="107" cy="184" fill="hsl(103, 75%, 74%)" opacity="0.37"></circle><circle r="4.5" cx="817" cy="628" fill="hsl(60, 75%, 74%)" opacity="0.60"></circle><circle r="8" cx="595" cy="770" fill="hsl(72, 75%, 74%)" opacity="0.91"></circle><circle r="9.5" cx="1161" cy="621" fill="hsl(198, 75%, 74%)" opacity="0.67"></circle><circle r="13" cx="1283" cy="73" fill="hsl(152, 75%, 74%)" opacity="0.12"></circle><circle r="8" cx="676" cy="389" fill="hsl(60, 75%, 74%)" opacity="0.27"></circle><circle r="18" cx="1272" cy="277" fill="hsl(181, 75%, 74%)" opacity="0.44"></circle><circle r="8" cx="779" cy="318" fill="hsl(57, 75%, 74%)" opacity="0.48"></circle><circle r="12" cx="1396" cy="346" fill="hsl(130, 75%, 74%)" opacity="0.69"></circle><circle r="7.5" cx="702" cy="476" fill="hsl(58, 75%, 74%)" opacity="0.76"></circle><circle r="16" cx="1046" cy="568" fill="hsl(165, 75%, 74%)" opacity="0.55"></circle><circle r="11" cx="1330" cy="687" fill="hsl(162, 75%, 74%)" opacity="0.41"></circle><circle r="7.5" cx="459" cy="101" fill="hsl(97, 75%, 74%)" opacity="0.76"></circle><circle r="7.5" cx="1289" cy="435" fill="hsl(172, 75%, 74%)" opacity="0.56"></circle><circle r="7" cx="136" cy="19" fill="hsl(71, 75%, 74%)" opacity="0.57"></circle><circle r="9" cx="116" cy="133" fill="hsl(87, 75%, 74%)" opacity="0.90"></circle><circle r="5.5" cx="619" cy="313" fill="hsl(69, 75%, 74%)" opacity="0.99"></circle><circle r="12.5" cx="1228" cy="585" fill="hsl(193, 75%, 74%)" opacity="0.31"></circle><circle r="9" cx="380" cy="22" fill="hsl(96, 75%, 74%)" opacity="0.75"></circle><circle r="9" cx="856" cy="273" fill="hsl(70, 75%, 74%)" opacity="0.17"></circle><circle r="14" cx="1126" cy="352" fill="hsl(190, 75%, 74%)" opacity="0.67"></circle><circle r="10" cx="1311" cy="404" fill="hsl(172, 75%, 74%)" opacity="0.24"></circle><circle r="14" cx="572" cy="37" fill="hsl(129, 75%, 74%)" opacity="0.13"></circle><circle r="9.5" cx="1087" cy="124" fill="hsl(132, 75%, 74%)" opacity="0.36"></circle><circle r="13" cx="1066" cy="298" fill="hsl(165, 75%, 74%)" opacity="0.89"></circle><circle r="8" cx="563" cy="351" fill="hsl(74, 75%, 74%)" opacity="0.34"></circle><circle r="8.5" cx="831" cy="755" fill="hsl(64, 75%, 74%)" opacity="0.26"></circle><circle r="7" cx="1193" cy="67" fill="hsl(149, 75%, 74%)" opacity="0.41"></circle><circle r="5.5" cx="280" cy="604" fill="hsl(63, 75%, 74%)" opacity="0.20"></circle><circle r="6.5" cx="73" cy="782" fill="hsl(113, 75%, 74%)" opacity="0.68"></circle><circle r="9" cx="498" cy="302" fill="hsl(77, 75%, 74%)" opacity="0.23"></circle><circle r="8" cx="290" cy="467" fill="hsl(63, 75%, 74%)" opacity="0.65"></circle><circle r="6.5" cx="812" cy="571" fill="hsl(60, 75%, 74%)" opacity="0.26"></circle><circle r="6" cx="643" cy="190" fill="hsl(66, 75%, 74%)" opacity="0.79"></circle><circle r="9" cx="1395" cy="781" fill="hsl(130, 75%, 74%)" opacity="0.16"></circle><circle r="8" cx="65" cy="240" fill="hsl(123, 75%, 74%)" opacity="0.29"></circle><circle r="6.5" cx="915" cy="616" fill="hsl(96, 75%, 74%)" opacity="0.59"></circle><circle r="6" cx="911" cy="115" fill="hsl(56, 75%, 74%)" opacity="0.47"></circle><circle r="9" cx="1400" cy="30" fill="hsl(98, 75%, 74%)" opacity="0.65"></circle><circle r="8" cx="1019" cy="238" fill="hsl(142, 75%, 74%)" opacity="0.32"></circle><circle r="8.5" cx="395" cy="384" fill="hsl(69, 75%, 74%)" opacity="0.51"></circle><circle r="15.5" cx="1101" cy="586" fill="hsl(183, 75%, 74%)" opacity="0.48"></circle><circle r="8" cx="1352" cy="130" fill="hsl(145, 75%, 74%)" opacity="0.90"></circle><circle r="9.5" cx="410" cy="169" fill="hsl(75, 75%, 74%)" opacity="0.79"></circle><circle r="9.5" cx="1355" cy="408" fill="hsl(152, 75%, 74%)" opacity="0.20"></circle><circle r="8" cx="1221" cy="786" fill="hsl(197, 75%, 74%)" opacity="0.16"></circle><circle r="5.5" cx="742" cy="200" fill="hsl(56, 75%, 74%)" opacity="0.84"></circle><circle r="9" cx="483" cy="54" fill="hsl(115, 75%, 74%)" opacity="0.51"></circle><circle r="7" cx="113" cy="322" fill="hsl(95, 75%, 74%)" opacity="0.59"></circle><circle r="6.5" cx="1370" cy="64" fill="hsl(120, 75%, 74%)" opacity="0.18"></circle><circle r="6.5" cx="634" cy="502" fill="hsl(66, 75%, 74%)" opacity="0.62"></circle><circle r="7" cx="127" cy="62" fill="hsl(81, 75%, 74%)" opacity="0.44"></circle><circle r="11.5" cx="1189" cy="275" fill="hsl(198, 75%, 74%)" opacity="0.86"></circle><circle r="7" cx="442" cy="397" fill="hsl(73, 75%, 74%)" opacity="0.85"></circle><circle r="10" cx="1394" cy="527" fill="hsl(130, 75%, 74%)" opacity="0.36"></circle><circle r="12" cx="1187" cy="534" fill="hsl(198, 75%, 74%)" opacity="0.87"></circle><circle r="14" cx="1299" cy="719" fill="hsl(172, 75%, 74%)" opacity="0.34"></circle><circle r="11.5" cx="968" cy="302" fill="hsl(118, 75%, 74%)" opacity="0.80"></circle><circle r="11.5" cx="1225" cy="188" fill="hsl(193, 75%, 74%)" opacity="0.75"></circle><circle r="9" cx="508" cy="667" fill="hsl(77, 75%, 74%)" opacity="0.28"></circle><circle r="8" cx="609" cy="728" fill="hsl(69, 75%, 74%)" opacity="0.29"></circle><circle r="18.5" cx="58" cy="507" fill="hsl(123, 75%, 74%)" opacity="0.83"></circle><circle r="5.5" cx="349" cy="382" fill="hsl(65, 75%, 74%)" opacity="0.39"></circle><circle r="12.5" cx="1288" cy="504" fill="hsl(181, 75%, 74%)" opacity="0.99"></circle><circle r="14.5" cx="26" cy="42" fill="hsl(130, 75%, 74%)" opacity="0.38"></circle><circle r="8.5" cx="967" cy="76" fill="hsl(53, 75%, 74%)" opacity="0.95"></circle><circle r="8" cx="291" cy="778" fill="hsl(63, 75%, 74%)" opacity="0.85"></circle><circle r="11" cx="55" cy="141" fill="hsl(120, 75%, 74%)" opacity="0.39"></circle><circle r="7.5" cx="395" cy="434" fill="hsl(69, 75%, 74%)" opacity="0.92"></circle><circle r="8.5" cx="751" cy="741" fill="hsl(56, 75%, 74%)" opacity="0.42"></circle><circle r="8" cx="951" cy="26" fill="hsl(28, 75%, 74%)" opacity="0.48"></circle><circle r="9.5" cx="637" cy="422" fill="hsl(66, 75%, 74%)" opacity="0.83"></circle><circle r="8.5" cx="657" cy="562" fill="hsl(63, 75%, 74%)" opacity="0.97"></circle><circle r="10" cx="491" cy="603" fill="hsl(77, 75%, 74%)" opacity="0.79"></circle><circle r="10.5" cx="917" cy="767" fill="hsl(96, 75%, 74%)" opacity="0.49"></circle><circle r="10" cx="462" cy="651" fill="hsl(75, 75%, 74%)" opacity="0.56"></circle><circle r="15.5" cx="1019" cy="353" fill="hsl(142, 75%, 74%)" opacity="0.22"></circle><circle r="8.5" cx="209" cy="435" fill="hsl(70, 75%, 74%)" opacity="0.95"></circle><circle r="6.5" cx="223" cy="486" fill="hsl(67, 75%, 74%)" opacity="0.64"></circle><circle r="5.5" cx="800" cy="654" fill="hsl(60, 75%, 74%)" opacity="0.66"></circle><circle r="6" cx="357" cy="61" fill="hsl(80, 75%, 74%)" opacity="0.83"></circle><circle r="12.5" cx="1094" cy="706" fill="hsl(183, 75%, 74%)" opacity="0.69"></circle><circle r="7.5" cx="423" cy="125" fill="hsl(87, 75%, 74%)" opacity="0.50"></circle><circle r="11.5" cx="1067" cy="755" fill="hsl(174, 75%, 74%)" opacity="0.48"></circle><circle r="8" cx="1372" cy="94" fill="hsl(132, 75%, 74%)" opacity="0.57"></circle><circle r="7.5" cx="831" cy="115" fill="hsl(48, 75%, 74%)" opacity="0.48"></circle><circle r="10" cx="1188" cy="23" fill="hsl(126, 75%, 74%)" opacity="0.26"></circle><circle r="16.5" cx="137" cy="584" fill="hsl(87, 75%, 74%)" opacity="0.78"></circle><circle r="13" cx="1305" cy="547" fill="hsl(172, 75%, 74%)" opacity="0.40"></circle><circle r="9" cx="677" cy="661" fill="hsl(60, 75%, 74%)" opacity="0.20"></circle><circle r="10" cx="1048" cy="140" fill="hsl(136, 75%, 74%)" opacity="0.27"></circle><circle r="7.5" cx="350" cy="98" fill="hsl(69, 75%, 74%)" opacity="0.58"></circle><circle r="10.5" cx="1311" cy="462" fill="hsl(172, 75%, 74%)" opacity="0.39"></circle><circle r="12.5" cx="67" cy="302" fill="hsl(113, 75%, 74%)" opacity="0.59"></circle><circle r="7" cx="422" cy="279" fill="hsl(71, 75%, 74%)" opacity="0.16"></circle><circle r="10.5" cx="70" cy="723" fill="hsl(113, 75%, 74%)" opacity="0.60"></circle><circle r="6.5" cx="290" cy="372" fill="hsl(63, 75%, 74%)" opacity="0.95"></circle><circle r="11" cx="536" cy="507" fill="hsl(76, 75%, 74%)" opacity="0.81"></circle><circle r="7.5" cx="232" cy="195" fill="hsl(67, 75%, 74%)" opacity="0.66"></circle><circle r="7.5" cx="280" cy="734" fill="hsl(63, 75%, 74%)" opacity="0.28"></circle><circle r="9" cx="714" cy="430" fill="hsl(57, 75%, 74%)" opacity="0.11"></circle><circle r="8" cx="1043" cy="785" fill="hsl(154, 75%, 74%)" opacity="0.55"></circle><circle r="11" cx="1153" cy="250" fill="hsl(195, 75%, 74%)" opacity="0.43"></circle><circle r="10" cx="461" cy="159" fill="hsl(80, 75%, 74%)" opacity="0.42"></circle><circle r="9.5" cx="1068" cy="190" fill="hsl(174, 75%, 74%)" opacity="0.25"></circle><circle r="10.5" cx="1370" cy="602" fill="hsl(141, 75%, 74%)" opacity="0.48"></circle><circle r="10" cx="489" cy="369" fill="hsl(77, 75%, 74%)" opacity="0.81"></circle><circle r="12" cx="404" cy="640" fill="hsl(71, 75%, 74%)" opacity="0.87"></circle><circle r="11.5" cx="530" cy="725" fill="hsl(77, 75%, 74%)" opacity="0.70"></circle><circle r="6.5" cx="640" cy="279" fill="hsl(66, 75%, 74%)" opacity="0.56"></circle><circle r="10" cx="760" cy="486" fill="hsl(56, 75%, 74%)" opacity="0.51"></circle><circle r="9.5" cx="1401" cy="575" fill="hsl(119, 75%, 74%)" opacity="0.79"></circle><circle r="4" cx="218" cy="328" fill="hsl(70, 75%, 74%)" opacity="0.70"></circle><circle r="8.5" cx="1098" cy="785" fill="hsl(183, 75%, 74%)" opacity="0.79"></circle><circle r="11" cx="1152" cy="297" fill="hsl(195, 75%, 74%)" opacity="0.21"></circle><circle r="10.5" cx="252" cy="108" fill="hsl(56, 75%, 74%)" opacity="0.43"></circle><circle r="9" cx="363" cy="775" fill="hsl(67, 75%, 74%)" opacity="0.11"></circle><circle r="6.5" cx="92" cy="16" fill="hsl(91, 75%, 74%)" opacity="0.71"></circle><circle r="7.5" cx="200" cy="68" fill="hsl(57, 75%, 74%)" opacity="0.86"></circle><circle r="11.5" cx="1353" cy="196" fill="hsl(152, 75%, 74%)" opacity="0.98"></circle><circle r="8" cx="720" cy="20" fill="hsl(82, 75%, 74%)" opacity="0.18"></circle><circle r="7.5" cx="30" cy="782" fill="hsl(133, 75%, 74%)" opacity="0.77"></circle><circle r="6.5" cx="862" cy="81" fill="hsl(37, 75%, 74%)" opacity="0.71"></circle><circle r="9.5" cx="280" cy="523" fill="hsl(63, 75%, 74%)" opacity="0.56"></circle><circle r="17" cx="1077" cy="374" fill="hsl(174, 75%, 74%)" opacity="0.99"></circle><circle r="8" cx="928" cy="157" fill="hsl(85, 75%, 74%)" opacity="0.32"></circle><circle r="7.5" cx="354" cy="422" fill="hsl(65, 75%, 74%)" opacity="0.93"></circle><circle r="10.5" cx="62" cy="94" fill="hsl(118, 75%, 74%)" opacity="0.22"></circle><circle r="8.5" cx="1314" cy="224" fill="hsl(162, 75%, 74%)" opacity="0.84"></circle><circle r="5.5" cx="785" cy="136" fill="hsl(52, 75%, 74%)" opacity="0.50"></circle><circle r="8" cx="79" cy="47" fill="hsl(104, 75%, 74%)" opacity="0.40"></circle><circle r="6" cx="901" cy="242" fill="hsl(86, 75%, 74%)" opacity="0.26"></circle><circle r="8.5" cx="883" cy="181" fill="hsl(77, 75%, 74%)" opacity="0.85"></circle><circle r="5" cx="267" cy="335" fill="hsl(63, 75%, 74%)" opacity="0.17"></circle><circle r="9" cx="1020" cy="171" fill="hsl(128, 75%, 74%)" opacity="0.40"></circle><circle r="9" cx="1291" cy="202" fill="hsl(172, 75%, 74%)" opacity="0.88"></circle><circle r="9" cx="384" cy="320" fill="hsl(69, 75%, 74%)" opacity="0.37"></circle><circle r="7" cx="172" cy="360" fill="hsl(80, 75%, 74%)" opacity="0.72"></circle><circle r="7.5" cx="907" cy="73" fill="hsl(38, 75%, 74%)" opacity="0.55"></circle><circle r="6.5" cx="660" cy="469" fill="hsl(63, 75%, 74%)" opacity="0.72"></circle><circle r="6.5" cx="654" cy="355" fill="hsl(63, 75%, 74%)" opacity="0.78"></circle><circle r="8" cx="781" cy="778" fill="hsl(57, 75%, 74%)" opacity="0.49"></circle><circle r="7.5" cx="219" cy="293" fill="hsl(70, 75%, 74%)" opacity="0.93"></circle><circle r="12" cx="999" cy="638" fill="hsl(130, 75%, 74%)" opacity="0.49"></circle><circle r="6" cx="614" cy="468" fill="hsl(69, 75%, 74%)" opacity="0.61"></circle><circle r="8.5" cx="184" cy="264" fill="hsl(75, 75%, 74%)" opacity="0.80"></circle><circle r="9.5" cx="923" cy="697" fill="hsl(96, 75%, 74%)" opacity="0.74"></circle><circle r="8.5" cx="832" cy="164" fill="hsl(58, 75%, 74%)" opacity="0.71"></circle><circle r="6" cx="347" cy="279" fill="hsl(65, 75%, 74%)" opacity="0.78"></circle><circle r="6.5" cx="880" cy="23" fill="hsl(26, 75%, 74%)" opacity="0.87"></circle><circle r="18" cx="1217" cy="404" fill="hsl(197, 75%, 74%)" opacity="0.94"></circle><circle r="7.5" cx="211" cy="159" fill="hsl(67, 75%, 74%)" opacity="0.80"></circle><circle r="8.5" cx="636" cy="152" fill="hsl(77, 75%, 74%)" opacity="0.77"></circle><circle r="8.5" cx="345" cy="141" fill="hsl(66, 75%, 74%)" opacity="0.26"></circle><circle r="9" cx="258" cy="231" fill="hsl(64, 75%, 74%)" opacity="0.84"></circle><circle r="8.5" cx="102" cy="762" fill="hsl(103, 75%, 74%)" opacity="0.29"></circle><circle r="9.5" cx="1106" cy="250" fill="hsl(183, 75%, 74%)" opacity="0.63"></circle><circle r="14.5" cx="1052" cy="636" fill="hsl(165, 75%, 74%)" opacity="0.45"></circle><circle r="8" cx="279" cy="644" fill="hsl(63, 75%, 74%)" opacity="0.34"></circle><circle r="11" cx="1063" cy="683" fill="hsl(165, 75%, 74%)" opacity="0.13"></circle><circle r="10" cx="233" cy="764" fill="hsl(67, 75%, 74%)" opacity="0.45"></circle><circle r="6.5" cx="783" cy="79" fill="hsl(48, 75%, 74%)" opacity="0.77"></circle><circle r="7.5" cx="329" cy="211" fill="hsl(64, 75%, 74%)" opacity="0.11"></circle><circle r="5" cx="273" cy="309" fill="hsl(63, 75%, 74%)" opacity="0.65"></circle><circle r="9.5" cx="825" cy="318" fill="hsl(64, 75%, 74%)" opacity="0.60"></circle><circle r="11" cx="914" cy="300" fill="hsl(96, 75%, 74%)" opacity="0.47"></circle><circle r="8.5" cx="891" cy="499" fill="hsl(86, 75%, 74%)" opacity="0.30"></circle><circle r="12.5" cx="22" cy="672" fill="hsl(144, 75%, 74%)" opacity="0.83"></circle><circle r="8" cx="813" cy="464" fill="hsl(60, 75%, 74%)" opacity="0.11"></circle><circle r="8.5" cx="664" cy="609" fill="hsl(63, 75%, 74%)" opacity="0.15"></circle><circle r="6" cx="181" cy="314" fill="hsl(75, 75%, 74%)" opacity="0.98"></circle><circle r="10.5" cx="582" cy="150" fill="hsl(85, 75%, 74%)" opacity="0.20"></circle><circle r="15" cx="1100" cy="458" fill="hsl(183, 75%, 74%)" opacity="0.75"></circle><circle r="10.5" cx="422" cy="702" fill="hsl(71, 75%, 74%)" opacity="0.56"></circle><circle r="15.5" cx="1331" cy="771" fill="hsl(162, 75%, 74%)" opacity="0.22"></circle><circle r="13.5" cx="1118" cy="749" fill="hsl(190, 75%, 74%)" opacity="0.82"></circle><circle r="11" cx="1317" cy="162" fill="hsl(160, 75%, 74%)" opacity="0.76"></circle><circle r="11" cx="1004" cy="545" fill="hsl(142, 75%, 74%)" opacity="0.65"></circle><circle r="6" cx="721" cy="245" fill="hsl(57, 75%, 74%)" opacity="0.29"></circle><circle r="5.5" cx="1055" cy="241" fill="hsl(165, 75%, 74%)" opacity="0.88"></circle><circle r="5" cx="724" cy="168" fill="hsl(58, 75%, 74%)" opacity="0.45"></circle><circle r="12.5" cx="125" cy="707" fill="hsl(95, 75%, 74%)" opacity="0.75"></circle><circle r="7.5" cx="287" cy="22" fill="hsl(56, 75%, 74%)" opacity="0.42"></circle><circle r="13.5" cx="395" cy="570" fill="hsl(69, 75%, 74%)" opacity="0.37"></circle><circle r="12.5" cx="494" cy="207" fill="hsl(77, 75%, 74%)" opacity="0.89"></circle><circle r="6.5" cx="1118" cy="16" fill="hsl(89, 75%, 74%)" opacity="0.66"></circle><circle r="10.5" cx="1400" cy="482" fill="hsl(130, 75%, 74%)" opacity="0.88"></circle><circle r="10" cx="997" cy="126" fill="hsl(88, 75%, 74%)" opacity="0.25"></circle><circle r="15" cx="1230" cy="234" fill="hsl(193, 75%, 74%)" opacity="0.57"></circle><circle r="12" cx="1152" cy="480" fill="hsl(195, 75%, 74%)" opacity="0.19"></circle><circle r="7.5" cx="933" cy="197" fill="hsl(96, 75%, 74%)" opacity="0.66"></circle><circle r="16" cx="1116" cy="640" fill="hsl(190, 75%, 74%)" opacity="0.64"></circle><circle r="7" cx="602" cy="269" fill="hsl(69, 75%, 74%)" opacity="0.17"></circle><circle r="8" cx="665" cy="725" fill="hsl(63, 75%, 74%)" opacity="0.83"></circle><circle r="8.5" cx="1123" cy="54" fill="hsl(113, 75%, 74%)" opacity="0.42"></circle><circle r="8.5" cx="1229" cy="97" fill="hsl(164, 75%, 74%)" opacity="0.57"></circle><circle r="6" cx="254" cy="368" fill="hsl(64, 75%, 74%)" opacity="0.91"></circle><circle r="12.5" cx="1009" cy="278" fill="hsl(142, 75%, 74%)" opacity="0.84"></circle><circle r="9" cx="951" cy="660" fill="hsl(107, 75%, 74%)" opacity="0.38"></circle><circle r="9.5" cx="927" cy="547" fill="hsl(96, 75%, 74%)" opacity="0.91"></circle><circle r="5" cx="694" cy="236" fill="hsl(58, 75%, 74%)" opacity="0.43"></circle><circle r="9.5" cx="703" cy="63" fill="hsl(80, 75%, 74%)" opacity="0.32"></circle><circle r="7" cx="78" cy="208" fill="hsl(113, 75%, 74%)" opacity="0.57"></circle><circle r="13.5" cx="1173" cy="662" fill="hsl(198, 75%, 74%)" opacity="0.88"></circle><circle r="11.5" cx="1331" cy="258" fill="hsl(162, 75%, 74%)" opacity="0.71"></circle><circle r="6.5" cx="945" cy="606" fill="hsl(107, 75%, 74%)" opacity="0.48"></circle><circle r="8" cx="623" cy="235" fill="hsl(66, 75%, 74%)" opacity="0.69"></circle><circle r="5" cx="869" cy="128" fill="hsl(51, 75%, 74%)" opacity="0.66"></circle><circle r="12.5" cx="469" cy="546" fill="hsl(76, 75%, 74%)" opacity="0.29"></circle><circle r="8.5" cx="1404" cy="649" fill="hsl(119, 75%, 74%)" opacity="0.70"></circle><circle r="6" cx="182" cy="409" fill="hsl(75, 75%, 74%)" opacity="0.85"></circle><circle r="12.5" cx="1331" cy="358" fill="hsl(162, 75%, 74%)" opacity="0.19"></circle><circle r="5" cx="783" cy="197" fill="hsl(57, 75%, 74%)" opacity="0.81"></circle><circle r="6" cx="776" cy="632" fill="hsl(56, 75%, 74%)" opacity="0.56"></circle><circle r="9" cx="613" cy="545" fill="hsl(69, 75%, 74%)" opacity="0.97"></circle><circle r="17" cx="79" cy="641" fill="hsl(113, 75%, 74%)" opacity="0.52"></circle><circle r="12" cx="1135" cy="697" fill="hsl(195, 75%, 74%)" opacity="0.25"></circle><circle r="4.5" cx="1208" cy="86" fill="hsl(153, 75%, 74%)" opacity="0.70"></circle><circle r="6.5" cx="1407" cy="114" fill="hsl(117, 75%, 74%)" opacity="0.97"></circle><circle r="14" cx="31" cy="347" fill="hsl(133, 75%, 74%)" opacity="0.27"></circle><circle r="13.5" cx="895" cy="422" fill="hsl(86, 75%, 74%)" opacity="0.84"></circle><circle r="15" cx="1273" cy="585" fill="hsl(181, 75%, 74%)" opacity="0.77"></circle><circle r="7.5" cx="873" cy="595" fill="hsl(77, 75%, 74%)" opacity="0.38"></circle><circle r="11.5" cx="934" cy="478" fill="hsl(107, 75%, 74%)" opacity="0.53"></circle><circle r="8" cx="904" cy="364" fill="hsl(86, 75%, 74%)" opacity="0.49"></circle><circle r="7.5" cx="452" cy="434" fill="hsl(75, 75%, 74%)" opacity="0.86"></circle><circle r="10" cx="23" cy="214" fill="hsl(133, 75%, 74%)" opacity="0.81"></circle><circle r="10" cx="603" cy="378" fill="hsl(69, 75%, 74%)" opacity="0.38"></circle><circle r="7.5" cx="559" cy="245" fill="hsl(74, 75%, 74%)" opacity="0.64"></circle><circle r="9" cx="784" cy="28" fill="hsl(49, 75%, 74%)" opacity="0.98"></circle><circle r="9.5" cx="206" cy="534" fill="hsl(70, 75%, 74%)" opacity="0.20"></circle><circle r="10.5" cx="1377" cy="236" fill="hsl(141, 75%, 74%)" opacity="0.70"></circle><circle r="12.5" cx="174" cy="672" fill="hsl(80, 75%, 74%)" opacity="0.20"></circle><circle r="6.5" cx="234" cy="396" fill="hsl(67, 75%, 74%)" opacity="0.14"></circle><circle r="11.5" cx="1351" cy="554" fill="hsl(152, 75%, 74%)" opacity="0.86"></circle><circle r="10" cx="1367" cy="667" fill="hsl(141, 75%, 74%)" opacity="0.66"></circle><circle r="14" cx="1347" cy="497" fill="hsl(152, 75%, 74%)" opacity="0.69"></circle><circle r="12.5" cx="63" cy="418" fill="hsl(123, 75%, 74%)" opacity="0.99"></circle><circle r="9.5" cx="970" cy="579" fill="hsl(118, 75%, 74%)" opacity="0.78"></circle><circle r="6" cx="754" cy="231" fill="hsl(56, 75%, 74%)" opacity="1.00"></circle><circle r="7" cx="889" cy="558" fill="hsl(86, 75%, 74%)" opacity="0.18"></circle><circle r="17" cx="1178" cy="351" fill="hsl(198, 75%, 74%)" opacity="0.68"></circle><circle r="8.5" cx="149" cy="394" fill="hsl(87, 75%, 74%)" opacity="0.13"></circle><circle r="7" cx="179" cy="21" fill="hsl(58, 75%, 74%)" opacity="0.99"></circle><circle r="5.5" cx="311" cy="343" fill="hsl(64, 75%, 74%)" opacity="0.36"></circle><circle r="11" cx="1017" cy="50" fill="hsl(58, 75%, 74%)" opacity="0.68"></circle><circle r="8.5" cx="185" cy="118" fill="hsl(65, 75%, 74%)" opacity="0.22"></circle><circle r="10" cx="1173" cy="111" fill="hsl(155, 75%, 74%)" opacity="0.71"></circle><circle r="14" cx="1197" cy="476" fill="hsl(198, 75%, 74%)" opacity="0.74"></circle><circle r="11" cx="1381" cy="157" fill="hsl(130, 75%, 74%)" opacity="0.34"></circle><circle r="8.5" cx="1294" cy="19" fill="hsl(120, 75%, 74%)" opacity="0.93"></circle><circle r="7.5" cx="953" cy="123" fill="hsl(69, 75%, 74%)" opacity="0.24"></circle><circle r="15" cx="1176" cy="205" fill="hsl(198, 75%, 74%)" opacity="0.65"></circle><circle r="7" cx="868" cy="782" fill="hsl(77, 75%, 74%)" opacity="0.80"></circle><circle r="7.5" cx="401" cy="97" fill="hsl(87, 75%, 74%)" opacity="0.45"></circle><circle r="6.5" cx="687" cy="299" fill="hsl(60, 75%, 74%)" opacity="0.44"></circle><circle r="8.5" cx="830" cy="46" fill="hsl(36, 75%, 74%)" opacity="0.48"></circle><circle r="8" cx="410" cy="46" fill="hsl(96, 75%, 74%)" opacity="0.13"></circle><circle r="6" cx="771" cy="698" fill="hsl(56, 75%, 74%)" opacity="0.49"></circle><circle r="8" cx="724" cy="628" fill="hsl(57, 75%, 74%)" opacity="0.44"></circle><circle r="8" cx="332" cy="27" fill="hsl(67, 75%, 74%)" opacity="0.77"></circle><circle r="8.5" cx="780" cy="421" fill="hsl(57, 75%, 74%)" opacity="0.45"></circle><circle r="8" cx="442" cy="66" fill="hsl(103, 75%, 74%)" opacity="0.36"></circle><circle r="5.5" cx="249" cy="469" fill="hsl(64, 75%, 74%)" opacity="0.58"></circle><circle r="6" cx="1064" cy="17" fill="hsl(57, 75%, 74%)" opacity="0.47"></circle><circle r="11.5" cx="521" cy="34" fill="hsl(130, 75%, 74%)" opacity="0.64"></circle><circle r="8" cx="693" cy="521" fill="hsl(58, 75%, 74%)" opacity="0.85"></circle><circle r="6.5" cx="1082" cy="56" fill="hsl(90, 75%, 74%)" opacity="0.68"></circle><circle r="9" cx="848" cy="490" fill="hsl(70, 75%, 74%)" opacity="0.49"></circle><circle r="12" cx="25" cy="270" fill="hsl(133, 75%, 74%)" opacity="0.16"></circle><circle r="13.5" cx="950" cy="364" fill="hsl(107, 75%, 74%)" opacity="0.54"></circle><circle r="13.5" cx="1219" cy="629" fill="hsl(197, 75%, 74%)" opacity="0.94"></circle><circle r="9" cx="18" cy="161" fill="hsl(144, 75%, 74%)" opacity="0.74"></circle><circle r="6" cx="628" cy="617" fill="hsl(66, 75%, 74%)" opacity="0.44"></circle><circle r="12" cx="1180" cy="771" fill="hsl(198, 75%, 74%)" opacity="0.17"></circle><circle r="6.5" cx="210" cy="621" fill="hsl(70, 75%, 74%)" opacity="0.43"></circle><circle r="6" cx="1350" cy="39" fill="hsl(119, 75%, 74%)" opacity="0.40"></circle><circle r="10" cx="834" cy="398" fill="hsl(64, 75%, 74%)" opacity="0.53"></circle><circle r="6.5" cx="728" cy="681" fill="hsl(57, 75%, 74%)" opacity="0.77"></circle><circle r="8.5" cx="724" cy="322" fill="hsl(57, 75%, 74%)" opacity="0.29"></circle><circle r="12.5" cx="1334" cy="310" fill="hsl(152, 75%, 74%)" opacity="0.12"></circle><circle r="9" cx="157" cy="157" fill="hsl(77, 75%, 74%)" opacity="0.35"></circle><circle r="8" cx="600" cy="650" fill="hsl(72, 75%, 74%)" opacity="0.25"></circle><circle r="8.5" cx="869" cy="338" fill="hsl(77, 75%, 74%)" opacity="0.64"></circle><circle r="10" cx="294" cy="158" fill="hsl(62, 75%, 74%)" opacity="0.50"></circle><circle r="12.5" cx="958" cy="730" fill="hsl(118, 75%, 74%)" opacity="0.54"></circle><circle r="8" cx="35" cy="713" fill="hsl(133, 75%, 74%)" opacity="0.56"></circle><circle r="11" cx="1056" cy="469" fill="hsl(165, 75%, 74%)" opacity="0.69"></circle><circle r="10" cx="18" cy="426" fill="hsl(144, 75%, 74%)" opacity="0.91"></circle><circle r="7.5" cx="1009" cy="204" fill="hsl(142, 75%, 74%)" opacity="0.54"></circle><circle r="6" cx="677" cy="263" fill="hsl(60, 75%, 74%)" opacity="0.16"></circle><circle r="12.5" cx="1125" cy="109" fill="hsl(139, 75%, 74%)" opacity="0.14"></circle><circle r="8" cx="258" cy="694" fill="hsl(64, 75%, 74%)" opacity="0.21"></circle><circle r="11" cx="428" cy="768" fill="hsl(73, 75%, 74%)" opacity="0.10"></circle><circle r="8" cx="1023" cy="486" fill="hsl(154, 75%, 74%)" opacity="0.98"></circle><circle r="5.5" cx="828" cy="674" fill="hsl(64, 75%, 74%)" opacity="0.15"></circle><circle r="6" cx="351" cy="246" fill="hsl(65, 75%, 74%)" opacity="0.22"></circle><circle r="9" cx="571" cy="200" fill="hsl(74, 75%, 74%)" opacity="0.13"></circle><circle r="8.5" cx="583" cy="507" fill="hsl(72, 75%, 74%)" opacity="0.19"></circle><circle r="7" cx="274" cy="271" fill="hsl(63, 75%, 74%)" opacity="0.81"></circle><circle r="7" cx="727" cy="102" fill="hsl(65, 75%, 74%)" opacity="0.95"></circle><circle r="13.5" cx="1216" cy="743" fill="hsl(197, 75%, 74%)" opacity="0.29"></circle><circle r="10" cx="493" cy="463" fill="hsl(77, 75%, 74%)" opacity="0.82"></circle><circle r="10.5" cx="669" cy="110" fill="hsl(77, 75%, 74%)" opacity="0.78"></circle><circle r="8" cx="155" cy="84" fill="hsl(74, 75%, 74%)" opacity="0.11"></circle><circle r="9" cx="142" cy="777" fill="hsl(87, 75%, 74%)" opacity="0.35"></circle><circle r="7" cx="588" cy="325" fill="hsl(72, 75%, 74%)" opacity="0.22"></circle><circle r="7" cx="772" cy="594" fill="hsl(56, 75%, 74%)" opacity="0.18"></circle><circle r="15" cx="1269" cy="661" fill="hsl(181, 75%, 74%)" opacity="0.68"></circle><circle r="12" cx="155" cy="220" fill="hsl(87, 75%, 74%)" opacity="0.25"></circle><circle r="8.5" cx="971" cy="517" fill="hsl(118, 75%, 74%)" opacity="0.35"></circle><circle r="9.5" cx="1156" cy="71" fill="hsl(143, 75%, 74%)" opacity="0.53"></circle><circle r="7" cx="441" cy="317" fill="hsl(73, 75%, 74%)" opacity="0.86"></circle><circle r="9.5" cx="339" cy="544" fill="hsl(65, 75%, 74%)" opacity="0.89"></circle><circle r="8.5" cx="714" cy="370" fill="hsl(57, 75%, 74%)" opacity="0.63"></circle><circle r="10" cx="470" cy="728" fill="hsl(76, 75%, 74%)" opacity="0.67"></circle><circle r="13.5" cx="1155" cy="153" fill="hsl(177, 75%, 74%)" opacity="0.93"></circle><circle r="11.5" cx="1316" cy="115" fill="hsl(153, 75%, 74%)" opacity="0.81"></circle><circle r="5.5" cx="649" cy="321" fill="hsl(63, 75%, 74%)" opacity="0.59"></circle><circle r="6.5" cx="697" cy="201" fill="hsl(58, 75%, 74%)" opacity="0.32"></circle><circle r="6.5" cx="283" cy="570" fill="hsl(63, 75%, 74%)" opacity="0.79"></circle><circle r="11" cx="341" cy="477" fill="hsl(65, 75%, 74%)" opacity="0.41"></circle><circle r="6.5" cx="528" cy="342" fill="hsl(77, 75%, 74%)" opacity="0.75"></circle><circle r="8" cx="767" cy="374" fill="hsl(56, 75%, 74%)" opacity="0.86"></circle><circle r="7.5" cx="449" cy="16" fill="hsl(123, 75%, 74%)" opacity="0.90"></circle><circle r="12" cx="1171" cy="585" fill="hsl(198, 75%, 74%)" opacity="0.92"></circle><circle r="8.5" cx="867" cy="724" fill="hsl(77, 75%, 74%)" opacity="0.36"></circle><circle r="12.5" cx="1207" cy="149" fill="hsl(182, 75%, 74%)" opacity="0.78"></circle><circle r="7" cx="1049" cy="214" fill="hsl(165, 75%, 74%)" opacity="0.45"></circle><circle r="10" cx="1011" cy="765" fill="hsl(142, 75%, 74%)" opacity="0.58"></circle><circle r="6.5" cx="661" cy="223" fill="hsl(63, 75%, 74%)" opacity="0.22"></circle><circle r="5.5" cx="759" cy="664" fill="hsl(56, 75%, 74%)" opacity="0.13"></circle><circle r="11" cx="117" cy="271" fill="hsl(95, 75%, 74%)" opacity="0.95"></circle><circle r="5" cx="796" cy="171" fill="hsl(55, 75%, 74%)" opacity="0.73"></circle><circle r="11" cx="1264" cy="176" fill="hsl(183, 75%, 74%)" opacity="0.60"></circle><circle r="8" cx="374" cy="192" fill="hsl(67, 75%, 74%)" opacity="0.82"></circle><circle r="10" cx="974" cy="227" fill="hsl(118, 75%, 74%)" opacity="0.11"></circle></svg>